<?xml version="1.0" encoding="UTF-8"?><svg id="Layer_1" xmlns="http://www.w3.org/2000/svg" viewBox="0 0 666.527 127.435"><defs><style>.cls-1{fill:#369;}</style></defs><path class="cls-1" d="M80.457,96.836c10.08,0,13.14,7.02,13.14,14.759,0,7.38-3.06,14.399-13.14,14.399H13.319c-11.7,0-13.319-8.64-13.319-12.959,0-4.5,1.62-8.1,4.14-12.06L47.338,32.398c.18-.36.54-.9.54-1.62,0-.9-.9-.9-1.26-.9h-29.519c-10.08,0-13.14-7.02-13.14-14.399C3.959,7.739,7.02.72,17.099.72h60.118c9.54,0,13.859,7.02,13.859,14.399,0,3.06-.9,6.12-2.52,8.64l-45.718,70.557c-.36.54-.54,1.08-.54,1.26,0,.72.36,1.26,1.26,1.26h36.898Z"/><path class="cls-1" d="M320.031,126.715c-12.24,0-28.619-3.6-37.979-16.02-7.56-10.08-9.18-26.459-9.18-47.338,0-21.06,1.44-37.799,9.18-47.338,10.08-12.6,24.479-16.019,37.979-16.019,12.419,0,23.579,3.419,32.219,10.619,3.959,3.42,7.02,6.3,7.02,12.42,0,6.839-7.38,15.119-14.58,15.119-3.42,0-5.76-.54-7.739-2.34-6.12-5.58-9.72-6.66-16.02-6.66-4.86,0-10.62,2.34-13.319,7.379-2.88,5.4-3.06,14.399-3.06,26.819,0,12.959.18,21.419,3.06,26.819,2.88,5.399,7.739,7.379,13.319,7.379,4.68,0,10.979-2.16,16.919-7.919,2.52-2.52,5.22-4.32,9.179-4.32,7.2,0,15.3,9,15.3,15.119,0,5.04-1.98,7.56-4.32,10.439-4.5,5.58-17.279,15.84-37.979,15.84Z"/><path class="cls-1" d="M526.309,29.159c-8.64,0-14.399,3.06-14.399,7.56,0,3.42,3.96,6.3,10.8,8.64l16.02,5.4c21.959,7.379,33.839,18.719,33.839,37.618,0,23.759-18.899,38.339-46.259,38.339-18.179,0-34.559-5.94-43.378-15.84-1.979-2.34-4.68-5.399-4.68-10.079,0-7.2,7.38-14.76,14.939-14.76,3.42,0,6.66,2.16,9.899,4.5,7.92,5.4,15.3,7.02,23.219,7.02,8.64,0,14.58-3.42,14.58-9.18,0-4.14-4.14-6.12-11.34-8.64l-16.02-5.399c-20.519-6.84-33.299-16.919-33.299-37.619,0-20.879,18.18-36.718,46.078-36.718,16.56,0,27.359,5.22,35.459,11.159,4.14,3.06,6.3,6.66,6.3,11.16,0,7.38-7.74,15.299-14.22,15.299-3.779,0-5.76-1.44-8.1-2.7-6.119-3.42-13.68-5.76-19.439-5.76Z"/><path class="cls-1" d="M651.587.72c10.079,0,13.14,7.02,13.14,14.759,0,7.38-3.061,14.399-13.14,14.399h-37.979c-1.26,0-1.62.36-1.62,1.62v13.859c0,1.26.36,1.62,1.62,1.62h31.679c10.079,0,13.14,7.02,13.14,14.759,0,7.38-3.061,14.399-13.14,14.399h-31.679c-1.26,0-1.62.36-1.62,1.62v17.459c0,1.26.36,1.62,1.62,1.62h39.778c10.079,0,13.14,7.02,13.14,14.759,0,7.38-3.061,14.399-13.14,14.399h-57.598c-7.56,0-14.399-3.24-14.399-13.5V14.579c0-10.26,6.84-13.859,14.399-13.859h55.798Z"/><polygon class="cls-1" points="120.958 .72 156.873 .72 139.913 43.718 165.596 43.699 104.697 125.995 119.22 66.683 93.596 66.746 120.958 .72"/><path class="cls-1" d="M224.992.72h-40.498c-7.56,0-14.399,3.6-14.399,13.859v22.695h15.88l-15.88,21.319v55.342c0,10.26,8.28,12.78,15.119,12.78,7.2,0,15.479-2.52,15.479-12.78v-28.079c0-1.26.36-1.62,1.62-1.62h22.679c21.6,0,38.699-13.5,38.699-41.578,0-28.439-17.099-41.938-38.699-41.938ZM220.493,54.897h-18.179c-1.26,0-1.62-.36-1.62-1.62v-21.599c0-1.26.36-1.62,1.62-1.62h18.179c6.84,0,11.52,4.68,11.52,12.6,0,7.739-4.68,12.239-11.52,12.239Z"/><path class="cls-1" d="M441.533,17.1l30.959,90.896c.72,2.341,1.079,4.32,1.079,6.12,0,8.46-7.739,13.319-15.839,13.319-5.399,0-10.979-2.52-13.319-10.079l-3.42-10.979c-.54-1.44-1.44-2.16-2.521-2.16h-35.278c-1.08,0-1.979.72-2.52,2.16l-3.42,10.979c-2.34,7.56-7.92,10.079-13.319,10.079-7.38,0-15.84-4.319-15.84-13.319,0-1.8.36-3.779,1.08-6.12l30.959-90.896c4.859-14.04,13.859-16.38,20.699-16.38s15.839,2.34,20.699,16.38ZM418.494,39.059l-10.08,35.639s-.18.54-.18.899c0,.721.54,1.26,1.26,1.26h22.68c.72,0,1.26-.539,1.26-1.26,0-.359-.181-.899-.181-.899l-10.079-35.639c-.9-2.88-.9-5.04-2.34-5.04s-1.44,2.16-2.34,5.04Z"/></svg>